<svg width="40" height="40" viewBox="0 0 40 40" fill="none" xmlns="http://www.w3.org/2000/svg">
<rect width="40" height="40" rx="16" fill="#F9F5FF"/>
<path d="M20 30.75C14.07 30.75 9.25 25.93 9.25 20C9.25 14.07 14.07 9.25 20 9.25C25.93 9.25 30.75 14.07 30.75 20C30.75 25.93 25.93 30.75 20 30.75ZM20 10.75C14.9 10.75 10.75 14.9 10.75 20C10.75 25.1 14.9 29.25 20 29.25C25.1 29.25 29.25 25.1 29.25 20C29.25 14.9 25.1 10.75 20 10.75Z" fill="#101828"/>
<path d="M23.71 23.93C23.58 23.93 23.45 23.9 23.33 23.82L20.23 21.97C19.46 21.51 18.89 20.5 18.89 19.61V15.51C18.89 15.1 19.23 14.76 19.64 14.76C20.05 14.76 20.39 15.1 20.39 15.51V19.61C20.39 19.97 20.69 20.5 21 20.68L24.1 22.53C24.46 22.74 24.57 23.2 24.36 23.56C24.21 23.8 23.96 23.93 23.71 23.93Z" fill="#101828"/>
</svg>
