<svg width="51" height="51" viewBox="0 0 51 51" fill="none" xmlns="http://www.w3.org/2000/svg">
<path d="M45.0712 50.3902H6.40886C3.27806 50.3902 0.73999 47.8522 0.73999 44.7214V6.05907C0.73999 2.92823 3.27806 0.390198 6.40886 0.390198H45.0712C48.202 0.390198 50.74 2.92823 50.74 6.05907V44.7214C50.74 47.8522 48.202 50.3902 45.0712 50.3902Z" fill="url(#paint0_linear_345_7073)"/>
<path d="M22.8359 20.1087C22.8379 20.1087 22.8398 20.1087 22.8418 20.1087C23.5576 20.1087 24.251 20.2493 24.9053 20.5257C25.4102 20.7386 26 20.5052 26.2158 19.9944C26.4307 19.4857 26.1934 18.8987 25.6846 18.6839C24.7832 18.3021 23.8262 18.1087 22.8438 18.1087C22.8408 18.1087 22.8379 18.1087 22.835 18.1087C18.7988 18.1087 15.5146 21.3919 15.5146 25.428C15.5146 29.4642 18.7988 32.7484 22.835 32.7484C26.8701 32.7484 30.1533 29.4642 30.1533 25.428C30.1533 24.8753 29.7061 24.428 29.1533 24.428C28.6006 24.428 28.1533 24.8753 28.1533 25.428C28.1533 28.3616 25.7676 30.7484 22.835 30.7484C19.9014 30.7484 17.5146 28.3616 17.5146 25.428C17.5146 22.4954 19.9014 20.1087 22.8359 20.1087Z" fill="white"/>
<path d="M33.71 25.7132C33.168 25.6458 32.665 26.0403 32.6006 26.5901C32.0195 31.5345 27.8213 35.263 22.835 35.263C17.4121 35.263 13 30.8509 13 25.428C13 20.0052 17.4121 15.5941 22.835 15.5941C24.2588 15.5941 25.6318 15.8909 26.915 16.4769C27.4189 16.7073 28.0107 16.4847 28.2402 15.9818C28.4688 15.4788 28.248 14.886 27.7451 14.6566C26.1992 13.9515 24.5469 13.5941 22.835 13.5941C16.3096 13.5941 11 18.9026 11 25.428C11 31.9534 16.3096 37.263 22.835 37.263C28.8359 37.263 33.8877 32.7747 34.5869 26.8226C34.6514 26.2747 34.2588 25.7776 33.71 25.7132Z" fill="white"/>
<path d="M40.4736 16.6107C40.3252 16.1215 39.7764 16.1058 39.0811 16.0863C38.4932 16.0687 37.5088 16.0404 37.25 15.6771C36.9912 15.3158 37.2842 14.3744 37.46 13.8129C37.667 13.1498 37.8301 12.6254 37.416 12.3256C36.9912 12.0199 36.4668 12.39 36.1211 12.6361L33.9219 14.2054C32.1521 15.4674 31.6458 17.0762 32.4856 18.5764C32.397 18.5789 32.3086 18.5959 32.2295 18.6468L24.8152 23.4569C24.3081 22.9474 23.6072 22.6312 22.833 22.6312C21.291 22.6312 20.0371 23.8861 20.0371 25.4281C20.0371 26.9701 21.291 28.225 22.833 28.225C24.376 28.225 25.6309 26.9701 25.6309 25.4281C25.6309 25.0197 25.5381 24.6342 25.3799 24.2839L32.7744 19.4867C32.8665 19.4269 32.9238 19.3386 32.9604 19.2433C33.4521 19.7893 34.0544 20.1307 34.7363 20.2123C34.8496 20.226 34.9639 20.2328 35.0801 20.2328C35.8633 20.2328 36.6953 19.9222 37.5596 19.3051L39.7598 17.7367C40.1055 17.4896 40.6279 17.1166 40.4736 16.6107ZM22.833 26.225C22.3945 26.225 22.0371 25.8676 22.0371 25.4281C22.0371 24.9886 22.3945 24.6312 22.833 24.6312C23.2725 24.6312 23.6309 24.9886 23.6309 25.4281C23.6309 25.8676 23.2725 26.225 22.833 26.225ZM36.9795 18.4906C36.1953 19.0492 35.4814 19.2963 34.8555 19.2201C34.3262 19.1566 33.8721 18.8636 33.5059 18.35C32.707 17.2299 33.0615 16.0472 34.502 15.0199L36.4746 13.6117C36.2188 14.4359 35.9092 15.5218 36.4355 16.2582C36.9619 16.9974 38.0908 17.057 38.9531 17.0824L36.9795 18.4906Z" fill="white"/>
<defs>
<linearGradient id="paint0_linear_345_7073" x1="0.73999" y1="25.3902" x2="50.74" y2="25.3902" gradientUnits="userSpaceOnUse">
<stop offset="0.128492" stop-color="#6941C6"/>
<stop offset="1" stop-color="#8161CD"/>
</linearGradient>
</defs>
</svg>
