<svg width="50" height="50" viewBox="0 0 51 51" fill="none" xmlns="http://www.w3.org/2000/svg">
<path d="M45.0712 50.4652H6.40886C3.27806 50.4652 0.73999 47.9272 0.73999 44.7964V6.13408C0.73999 3.00324 3.27806 0.46521 6.40886 0.46521H45.0712C48.202 0.46521 50.74 3.00324 50.74 6.13408V44.7964C50.74 47.9272 48.202 50.4652 45.0712 50.4652Z" fill="url(#paint0_linear_345_6332)"/>
<path d="M37.3406 12.4652H23.3767C21.5027 12.4652 19.9773 13.9916 19.9773 15.8676V17.7299H14.1365C12.2634 17.7299 10.74 19.2552 10.74 21.1312V30.9213C10.74 32.8002 12.2634 34.3295 14.1365 34.3295H14.6404L14.571 38.1556C14.5642 38.5248 14.7605 38.8666 15.0818 39.0463C15.2341 39.1322 15.4031 39.1742 15.571 39.1742C15.7585 39.1742 15.9451 39.1215 16.1082 39.0179L23.4656 34.3295H28.0876C29.9329 34.3295 31.4329 32.8446 31.4785 31.0053L35.3113 33.7338C35.4841 33.8568 35.6873 33.9193 35.8914 33.9193C36.0505 33.9193 36.2097 33.8812 36.3562 33.8051C36.6902 33.6293 36.8972 33.2816 36.8914 32.9047L36.8337 29.0638H37.3406C39.2146 29.0638 40.74 27.5375 40.74 25.6615V15.8676C40.74 13.9916 39.2146 12.4652 37.3406 12.4652ZM29.4871 30.9213C29.4871 31.6976 28.8591 32.3295 28.0876 32.3295H23.1736C22.9832 32.3295 22.7966 32.3842 22.6365 32.4857L16.6042 36.3295L16.6589 33.348C16.6638 33.0795 16.5603 32.8207 16.3728 32.6293C16.1843 32.4369 15.9275 32.3295 15.6589 32.3295H14.1365C13.366 32.3295 12.74 31.6976 12.74 30.9213V21.1312C12.74 20.3588 13.366 19.7299 14.1365 19.7299H28.0876C28.8591 19.7299 29.4871 20.3588 29.4871 21.1312V30.9213ZM38.74 25.6615C38.74 26.4349 38.1121 27.0638 37.3406 27.0638H35.8181C35.5505 27.0638 35.2937 27.1713 35.1052 27.3617C34.9177 27.5531 34.8142 27.8109 34.8181 28.0785L34.8621 30.9584L31.4871 28.5565V21.1312C31.4871 19.2552 29.9617 17.7299 28.0876 17.7299H21.9773V15.8676C21.9773 15.1078 22.6179 14.4652 23.3767 14.4652H37.3406C38.0994 14.4652 38.74 15.1078 38.74 15.8676V25.6615Z" fill="white"/>
<defs>
<linearGradient id="paint0_linear_345_6332" x1="0.73999" y1="25.4652" x2="50.74" y2="25.4652" gradientUnits="userSpaceOnUse">
<stop offset="0.128492" stop-color="#6941C6"/>
<stop offset="1" stop-color="#8161CD"/>
</linearGradient>
</defs>
</svg>
