<svg width="40" height="40" viewBox="0 0 40 40" fill="none" xmlns="http://www.w3.org/2000/svg">
<rect width="40" height="40" rx="16" fill="#F9F5FF"/>
<path d="M20 30.75C19.22 30.75 18.46 30.35 17.94 29.65L16.93 28.3C16.72 28.02 16.44 27.86 16.14 27.84C15.84 27.83 15.54 27.96 15.3 28.21L14.73 27.7L15.28 28.21C13.84 29.75 12.73 29.63 12.2 29.42C11.66 29.21 10.75 28.52 10.75 26.3V15.04C10.75 10.6 12.03 9.25 16.22 9.25H23.78C27.97 9.25 29.25 10.6 29.25 15.04V26.3C29.25 28.51 28.34 29.2 27.8 29.42C27.27 29.63 26.17 29.75 24.72 28.21C24.48 27.95 24.19 27.81 23.87 27.84C23.57 27.86 23.28 28.02 23.07 28.3L22.06 29.65C21.54 30.35 20.78 30.75 20 30.75ZM16.08 26.33C16.12 26.33 16.17 26.33 16.21 26.33C16.95 26.37 17.65 26.76 18.12 27.39L19.13 28.74C19.62 29.39 20.37 29.39 20.86 28.74L21.87 27.39C22.35 26.76 23.04 26.37 23.79 26.33C24.53 26.29 25.27 26.6 25.81 27.18C26.57 27.99 27.07 28.09 27.24 28.02C27.48 27.92 27.74 27.34 27.74 26.3V15.04C27.74 11.43 27.11 10.75 23.77 10.75H16.22C12.88 10.75 12.25 11.43 12.25 15.04V26.3C12.25 27.35 12.51 27.93 12.75 28.02C12.92 28.09 13.42 27.99 14.18 27.18C14.72 26.63 15.39 26.33 16.08 26.33Z" fill="#101828"/>
<path d="M24 15.75H16C15.59 15.75 15.25 15.41 15.25 15C15.25 14.59 15.59 14.25 16 14.25H24C24.41 14.25 24.75 14.59 24.75 15C24.75 15.41 24.41 15.75 24 15.75Z" fill="#101828"/>
<path d="M23 19.75H17C16.59 19.75 16.25 19.41 16.25 19C16.25 18.59 16.59 18.25 17 18.25H23C23.41 18.25 23.75 18.59 23.75 19C23.75 19.41 23.41 19.75 23 19.75Z" fill="#101828"/>
</svg>
